<svg xmlns="http://www.w3.org/2000/svg">
  <symbol class="logo__img logo__img--logo-mobile" id="logo-mobile" width="32" height="36" viewBox="0 0 32 36" role="img" aria-label="Логотип интернет-магазина кофейных напитков." xmlns="http://www.w3.org/2000/svg"><path fill-rule="evenodd" clip-rule="evenodd" d="M53.8917 6.58616L58.9302 27.7312C59.0013 27.9491 59.0184 28.1815 58.98 28.4078C58.9417 28.6341 58.849 28.8472 58.7102 29.0284C58.5715 29.2096 58.3909 29.3532 58.1845 29.4465C57.978 29.5398 57.7522 29.58 57.5268 29.5635H53.5201C52.8298 35.3747 47.9494 39.8784 42.0315 39.8784C36.1136 39.8784 31.2332 35.3747 30.543 29.5635H28.5778C27.8869 35.442 22.9527 40 16.9685 40C10.9742 40 6.0335 35.4266 5.35571 29.5337H1.45014C1.22961 29.5445 1.00974 29.5014 0.808914 29.4082C0.608085 29.315 0.432119 29.1743 0.295711 28.9979C0.159304 28.8214 0.0664152 28.6144 0.0248022 28.3941C-0.0168108 28.1737 -0.00593994 27.9464 0.0565069 27.7312L5.10477 6.58616C5.45562 4.25872 7.63865 0 13.4861 0C13.8738 0 14.2456 0.156518 14.5197 0.435122C14.7939 0.713727 14.9479 1.0916 14.9479 1.4856C14.9479 1.87961 14.7939 2.25748 14.5197 2.53608C14.2456 2.81468 13.8738 2.9712 13.4861 2.9712C8.7789 2.9712 8.04797 6.6654 7.9895 7.07146L3.3408 26.6022H5.37467C6.12089 20.7847 11.0272 16.2918 16.9685 16.2918C22.9066 16.2918 27.8107 20.7798 28.5611 26.5926L30.5587 26.6017C31.3043 20.8518 36.1567 16.4134 42.0315 16.4134C47.9178 16.4134 52.7776 20.8691 53.5086 26.6353V26.5824H55.6459L51.007 7.07146C50.9387 6.6654 50.237 2.9712 45.5104 2.9712C45.1227 2.9712 44.7509 2.81468 44.4767 2.53608C44.2026 2.25748 44.0485 1.87961 44.0485 1.4856C44.0485 1.0916 44.2026 0.713727 44.4767 0.435122C44.7509 0.156518 45.1227 0 45.5104 0C51.3578 0 53.5408 4.25872 53.8917 6.58616ZM25.6722 29.5635C25.7448 29.1018 25.7825 28.6283 25.7825 28.1459C25.7825 27.6164 25.7371 27.0977 25.65 26.5935C24.9252 22.3982 21.3141 19.2097 16.9685 19.2097C12.6203 19.2097 9.00753 22.402 8.28571 26.601C8.19945 27.1028 8.15447 27.619 8.15447 28.1459C8.15447 28.6205 8.19096 29.0864 8.26125 29.541C8.92191 33.8136 12.5687 37.0821 16.9685 37.0821C21.3605 37.0821 25.0023 33.8251 25.6722 29.5635ZM50.6138 29.5635C50.6874 29.102 50.7256 28.6285 50.7256 28.1459C50.7256 23.2777 46.8331 19.3313 42.0315 19.3313C37.2299 19.3313 33.3374 23.2777 33.3374 28.1459C33.3374 28.6285 33.3756 29.102 33.4492 29.5635C34.118 33.7577 37.7058 36.9605 42.0315 36.9605C46.3572 36.9605 49.945 33.7577 50.6138 29.5635Z"/></symbol>
  <symbol class="logo__img logo__img--logo-tablet" id="logo-tablet" width="82" height="36" viewBox="0 0 82 36" role="img" aria-label="Логотип интернет-магазина кофейных напитков." xmlns="http://www.w3.org/2000/svg">
    <path d="M76.936 17.24H81.136V24.2C80.176 24.888 79.072 25.416 77.824 25.784C76.576 26.152 75.328 26.336 74.08 26.336C72.32 26.336 70.736 25.968 69.328 25.232C67.92 24.48 66.816 23.44 66.016 22.112C65.216 20.784 64.816 19.28 64.816 17.6C64.816 15.92 65.216 14.416 66.016 13.088C66.816 11.76 67.928 10.728 69.352 9.992C70.776 9.24 72.384 8.864 74.176 8.864C75.744 8.864 77.152 9.128 78.4 9.656C79.648 10.184 80.688 10.944 81.52 11.936L78.496 14.672C77.36 13.424 76 12.8 74.416 12.8C72.976 12.8 71.816 13.24 70.936 14.12C70.056 14.984 69.616 16.144 69.616 17.6C69.616 18.528 69.816 19.36 70.216 20.096C70.616 20.816 71.176 21.384 71.896 21.8C72.616 22.2 73.44 22.4 74.368 22.4C75.28 22.4 76.136 22.216 76.936 21.848V17.24Z" fill="#333333"/>
    <path fill-rule="evenodd" clip-rule="evenodd" d="M58 18C58 20.8737 57.4014 23.5901 56.3369 26H43C45.4627 22.2281 48 17.6606 48 13C48 7.00236 43.9385 1.95335 38.4158 0.453392C39.5681 0.156712 40.7678 0 42 0C50.8366 0 58 8.05888 58 18ZM44 13C44 8.02944 39.9706 4 35 4C28.3493 4 26 12.5071 26 18C26 27.9411 33.1634 36 42 36C46.7387 36 50.9962 33.6825 53.9259 30H35C35.3518 29.5514 35.7202 29.0891 36.0987 28.6142C39.6157 24.2012 44 18.6997 44 13Z" fill="#7859CF"/>
    <path d="M1.85188 9.2H9.79588C11.6359 9.2 13.2679 9.544 14.6919 10.232C16.1159 10.92 17.2199 11.896 18.0039 13.16C18.7879 14.424 19.1799 15.904 19.1799 17.6C19.1799 19.296 18.7879 20.776 18.0039 22.04C17.2199 23.304 16.1159 24.28 14.6919 24.968C13.2679 25.656 11.6359 26 9.79588 26H1.85188V9.2ZM9.60388 22.208C11.0439 22.208 12.1959 21.8 13.0599 20.984C13.9399 20.168 14.3799 19.04 14.3799 17.6C14.3799 16.16 13.9399 15.032 13.0599 14.216C12.1959 13.4 11.0439 12.992 9.60388 12.992H6.60388V22.208H9.60388Z" fill="#333333"/>
  </symbol>
  <symbol class="logo__img logo__img--logo-desktop" id="logo-desktop" width="170" height="36" viewBox="0 0 170 36" role="img" aria-label="Логотип интернет-магазина кофейных напитков." xmlns="http://www.w3.org/2000/svg">
    <path d="M142.936 17.24H147.136V24.2C146.176 24.888 145.072 25.416 143.824 25.784C142.576 26.152 141.328 26.336 140.08 26.336C138.32 26.336 136.736 25.968 135.328 25.232C133.92 24.48 132.816 23.44 132.016 22.112C131.216 20.784 130.816 19.28 130.816 17.6C130.816 15.92 131.216 14.416 132.016 13.088C132.816 11.76 133.928 10.728 135.352 9.992C136.776 9.24 138.384 8.864 140.176 8.864C141.744 8.864 143.152 9.128 144.4 9.656C145.648 10.184 146.688 10.944 147.52 11.936L144.496 14.672C143.36 13.424 142 12.8 140.416 12.8C138.976 12.8 137.816 13.24 136.936 14.12C136.056 14.984 135.616 16.144 135.616 17.6C135.616 18.528 135.816 19.36 136.216 20.096C136.616 20.816 137.176 21.384 137.896 21.8C138.616 22.2 139.44 22.4 140.368 22.4C141.28 22.4 142.136 22.216 142.936 21.848V17.24ZM159.101 26.336C157.325 26.336 155.725 25.96 154.301 25.208C152.893 24.456 151.781 23.416 150.965 22.088C150.165 20.76 149.765 19.264 149.765 17.6C149.765 15.936 150.165 14.44 150.965 13.112C151.781 11.784 152.893 10.744 154.301 9.992C155.725 9.24 157.325 8.864 159.101 8.864C160.877 8.864 162.469 9.24 163.877 9.992C165.301 10.744 166.413 11.784 167.213 13.112C168.029 14.44 168.437 15.936 168.437 17.6C168.437 19.264 168.029 20.76 167.213 22.088C166.413 23.416 165.301 24.456 163.877 25.208C162.469 25.96 160.877 26.336 159.101 26.336ZM159.101 22.4C159.949 22.4 160.717 22.2 161.405 21.8C162.093 21.4 162.637 20.84 163.037 20.12C163.437 19.384 163.637 18.544 163.637 17.6C163.637 16.656 163.437 15.824 163.037 15.104C162.637 14.368 162.093 13.8 161.405 13.4C160.717 13 159.949 12.8 159.101 12.8C158.253 12.8 157.485 13 156.797 13.4C156.109 13.8 155.565 14.368 155.165 15.104C154.765 15.824 154.565 16.656 154.565 17.6C154.565 18.544 154.765 19.384 155.165 20.12C155.565 20.84 156.109 21.4 156.797 21.8C157.485 22.2 158.253 22.4 159.101 22.4Z" fill="#333333"/>
    <path fill-rule="evenodd" clip-rule="evenodd" d="M124 18C124 20.8737 123.401 23.5901 122.337 26H109C111.463 22.2281 114 17.6606 114 13C114 7.00236 109.938 1.95335 104.416 0.453392C105.568 0.156712 106.768 0 108 0C116.837 0 124 8.05888 124 18ZM110 13C110 8.02944 105.971 4 101 4C94.3493 4 92 12.5071 92 18C92 27.9411 99.1634 36 108 36C112.739 36 116.996 33.6825 119.926 30H101C101.352 29.5514 101.72 29.0891 102.099 28.6142C105.616 24.2012 110 18.6997 110 13Z" fill="#7859CF"/>
    <path d="M2.65063 9.2H10.5946C12.4346 9.2 14.0666 9.544 15.4906 10.232C16.9146 10.92 18.0186 11.896 18.8026 13.16C19.5866 14.424 19.9786 15.904 19.9786 17.6C19.9786 19.296 19.5866 20.776 18.8026 22.04C18.0186 23.304 16.9146 24.28 15.4906 24.968C14.0666 25.656 12.4346 26 10.5946 26H2.65063V9.2ZM10.4026 22.208C11.8426 22.208 12.9946 21.8 13.8586 20.984C14.7386 20.168 15.1786 19.04 15.1786 17.6C15.1786 16.16 14.7386 15.032 13.8586 14.216C12.9946 13.4 11.8426 12.992 10.4026 12.992H7.40263V22.208H10.4026ZM30.3028 21.536H27.7108V26H22.9588V9.2H30.6388C32.1588 9.2 33.4788 9.456 34.5988 9.968C35.7188 10.464 36.5828 11.184 37.1908 12.128C37.7988 13.056 38.1028 14.152 38.1028 15.416C38.1028 16.632 37.8148 17.696 37.2388 18.608C36.6788 19.504 35.8708 20.208 34.8148 20.72L38.4388 26H33.3508L30.3028 21.536ZM33.3028 15.416C33.3028 14.632 33.0548 14.024 32.5588 13.592C32.0628 13.16 31.3268 12.944 30.3508 12.944H27.7108V17.864H30.3508C31.3268 17.864 32.0628 17.656 32.5588 17.24C33.0548 16.808 33.3028 16.2 33.3028 15.416ZM41.2044 9.2H45.9564V26H41.2044V9.2ZM65.8012 9.2V26H61.8892L54.4732 17.048V26H49.8172V9.2H53.7292L61.1452 18.152V9.2H65.8012ZM76.1131 19.904L74.3371 21.8V26H69.6331V9.2H74.3371V16.184L80.8411 9.2H86.0731L79.2091 16.64L86.4331 26H80.9131L76.1131 19.904Z" fill="#333333"/>
  </symbol>
  <symbol class="user-list__icon user-list__icon--user" id="user" width="16" height="16" viewBox="0 0 16 16" fill="currentColor" role="img" aria-label="Иконка пользователя." xmlns="http://www.w3.org/2000/svg">
    <path fill-rule="evenodd" clip-rule="evenodd" d="M10.6667 4C10.6667 5.47276 9.47276 6.66667 8 6.66667C6.52724 6.66667 5.33333 5.47276 5.33333 4C5.33333 2.52724 6.52724 1.33333 8 1.33333C9.47276 1.33333 10.6667 2.52724 10.6667 4ZM12 4C12 6.20914 10.2091 8 8 8C5.79086 8 4 6.20914 4 4C4 1.79086 5.79086 0 8 0C10.2091 0 12 1.79086 12 4ZM3.19673 12.3102C4.43611 11.2774 6.1613 10.6667 8 10.6667C9.8387 10.6667 11.5639 11.2774 12.8033 12.3102C14.0354 13.337 14.6667 14.6719 14.6667 16H16C16 14.2321 15.1573 12.5363 13.6569 11.286C12.1566 10.0357 10.1218 9.33333 8 9.33333C5.87821 9.33333 3.8434 10.0357 2.34315 11.286C0.842686 12.5363 0 14.2321 0 16L1.33333 16C1.33333 14.6719 1.96465 13.337 3.19673 12.3102Z"/>
  </symbol>
  <symbol class="user-list__icon user-list__icon--basket"  id="basket" width="16" height="16" viewBox="0 0 16 16" fill="currentColor" role="img" aria-label="Иконка корзины." xmlns="http://www.w3.org/2000/svg">
    <path fill-rule="evenodd" clip-rule="evenodd" d="M5.66091 3.87546L5.89351 6.66667H10.1065L10.3391 3.87546C10.4531 2.50699 9.37321 1.33333 8 1.33333C6.62679 1.33333 5.54687 2.50699 5.66091 3.87546ZM11.4444 6.66667L11.6678 3.98618C11.8466 1.84036 10.1533 0 8 0C5.84674 0 4.15336 1.84036 4.33218 3.98618L4.55556 6.66667H1.34687H0L0.190476 8L1.00626 13.7105C1.19393 15.0242 2.31905 16 3.64612 16H12.3539C13.6809 16 14.8061 15.0242 14.9937 13.7105L15.8095 8L16 6.66667H14.6531H11.4444ZM11.3333 8H11.2801L11.0579 10.6667H14.0817L14.4627 8H11.3333ZM9.94213 8H6.05787L6.28009 10.6667H9.71991L9.94213 8ZM4.71991 8H4.66667H1.53735L1.9183 10.6667H4.94213L4.71991 8ZM6.61342 14.6667L6.3912 12H9.6088L9.38658 14.6667H6.61342ZM10.9468 12L10.7245 14.6667H12.3539C13.0174 14.6667 13.58 14.1788 13.6738 13.5219L13.8912 12H10.9468ZM5.05324 12L5.27547 14.6667H3.64612C2.98259 14.6667 2.42003 14.1788 2.32619 13.5219L2.10877 12H5.05324Z"/>
  </symbol>
  <symbol class="slider__arrow" id="slider-arrow" width="11" height="20" viewBox="0 0 11 20" fill="currentColor" role="img" aria-label="Стрелочка слайдера." xmlns="http://www.w3.org/2000/svg">
    <path fill-rule="evenodd" clip-rule="evenodd" d="M9.71661 0L11 1.32082L2.56677 10L11 18.6792L9.71661 20L0 10L9.71661 0Z" />
  </symbol>
  <symbol class="pagination__icon-prev" id="pagination-arrow" width="6" height="10" viewBox="0 0 6 10" role="img" aria-label="Стрелочка пагинации." xmlns="http://www.w3.org/2000/svg">
    <path fill-rule="evenodd" clip-rule="evenodd" d="M4.80847 -5.20835e-08L6 1.23899L2.38306 5L6 8.76101L4.80847 10L-2.18557e-07 5L4.80847 -5.20835e-08Z" fill="#7859CF"/>
  </symbol>
  <symbol class="contacts__phone-icon" id="icon-phone" width="13" height="16" viewBox="0 0 13 16" fill="none" xmlns="http://www.w3.org/2000/svg">
    <path fill-rule="evenodd" clip-rule="evenodd" d="M1.47771 1.49035C0.407036 2.09016 -0.173009 3.23613 0.0457595 4.31941L0.404071 6.09367C1.3302 9.21701 2.90461 11.863 5.22921 14.2029L6.63362 15.3911C7.49109 16.1166 8.80393 16.2022 9.8746 15.6024L12.1043 14.3533C12.9766 13.8646 13.2662 12.8186 12.7298 12.0941L10.7951 9.48096C10.2793 8.7842 9.20705 8.66949 8.42947 9.22787L7.05383 10.2157C5.82614 9.33632 5.0461 8.02537 4.87507 6.55403L6.44457 5.89198C7.33172 5.51776 7.76545 4.55939 7.4015 3.77755L6.03652 0.845267C5.65806 0.0322596 4.57968 -0.247395 3.7074 0.241264L1.47771 1.49035ZM1.2824 4.01819C1.16306 3.42725 1.47948 2.80211 2.06354 2.47492L4.29323 1.22582C4.5113 1.10366 4.78089 1.17357 4.87551 1.37683L6.24049 4.30911C6.33147 4.50457 6.22304 4.74416 6.00126 4.83771L3.57088 5.8629L3.58692 6.27871C3.66894 8.40504 4.79869 10.3037 6.65548 11.4358L7.01858 11.6572L9.14878 10.1275C9.34317 9.98792 9.61123 10.0166 9.74019 10.1908L11.6748 12.8039C11.8089 12.9851 11.7365 13.2466 11.5185 13.3687L9.28877 14.6178C8.70471 14.945 7.98854 14.8983 7.52079 14.5026L6.11637 13.3144C4.3893 11.6193 2.29008 8.09128 1.64071 5.79245L1.2824 4.01819Z" fill="#7859CF"/>
  </symbol>
  <symbol class="contacts__address-icon" id="icon-address" width="13" height="16" viewBox="0 0 13 16" fill="none" xmlns="http://www.w3.org/2000/svg">
    <path fill-rule="evenodd" clip-rule="evenodd" d="M11.8 6.5C11.8 8.83027 10.4332 10.9174 8.8884 12.5109C8.13169 13.2915 7.37106 13.9131 6.79878 14.3393C6.6918 14.419 6.59177 14.4916 6.5 14.5569C6.40823 14.4916 6.3082 14.419 6.20122 14.3393C5.62894 13.9131 4.86831 13.2915 4.1116 12.5109C2.56678 10.9174 1.2 8.83027 1.2 6.5C1.2 3.57289 3.57289 1.2 6.5 1.2C9.42711 1.2 11.8 3.57289 11.8 6.5ZM13 6.5C13 12.0899 6.5 16 6.5 16C6.5 16 0 12.0899 0 6.5C0 2.91015 2.91015 0 6.5 0C10.0899 0 13 2.91015 13 6.5ZM8.8 6.5C8.8 7.77026 7.77026 8.8 6.5 8.8C5.22974 8.8 4.2 7.77026 4.2 6.5C4.2 5.22974 5.22974 4.2 6.5 4.2C7.77026 4.2 8.8 5.22974 8.8 6.5ZM10 6.5C10 8.433 8.433 10 6.5 10C4.567 10 3 8.433 3 6.5C3 4.567 4.567 3 6.5 3C8.433 3 10 4.567 10 6.5Z" fill="#7859CF"/>
  </symbol>
</svg>
